# 3ds Max Wavefront OBJ Exporter v0.99 - (c)2007 guruware
# 创建的文件:29.12.2021 11:41:12

mtllib 122.mtl

#
# object Layer_0
#

v  17.1680 7.1680 -17.0476
v  2.8320 7.1680 -17.0476
v  2.8320 7.1680 -2.9524
v  17.1680 7.1680 -2.9524
v  17.1680 -7.1680 -2.9524
v  2.8320 -7.1680 -2.9524
v  2.8320 -7.1680 -17.0476
v  17.1680 -7.1680 -17.0476
v  14.3301 8.6603 -7.5000
v  10.0000 10.0000 -10.0000
v  12.5000 8.6603 -5.6699
v  10.0000 8.6603 -5.0000
v  7.5000 8.6603 -5.6699
v  5.6699 8.6603 -7.5000
v  5.0000 8.6603 -10.0000
v  5.6699 -8.6603 -7.5000
v  10.0000 -10.0000 -10.0000
v  7.5000 -8.6603 -5.6699
v  10.0000 -8.6603 -5.0000
v  12.5000 -8.6603 -5.6699
v  14.3301 -8.6603 -7.5000
v  15.0000 -8.6603 -10.0000
v  14.3301 -8.6603 -12.5000
v  12.5000 -8.6603 -14.3301
v  10.0000 -8.6603 -15.0000
v  7.5000 -8.6603 -14.3301
v  5.6699 -8.6603 -12.5000
v  5.0000 -8.6603 -10.0000
v  5.6699 8.6603 -12.5000
v  7.5000 8.6603 -14.3301
v  10.0000 8.6603 -15.0000
v  12.5000 8.6603 -14.3301
v  14.3301 8.6603 -12.5000
v  15.0000 8.6603 -10.0000
v  18.6603 -5.0000 -10.0000
v  17.5000 -5.0000 -5.6699
v  14.3301 -5.0000 -2.5000
v  10.0000 -5.0000 -1.3397
v  5.6699 -5.0000 -2.5000
v  2.5000 -5.0000 -5.6699
v  1.3397 -5.0000 -10.0000
v  2.5000 -5.0000 -14.3301
v  5.6699 -5.0000 -17.5000
v  10.0000 -5.0000 -18.6603
v  14.3301 -5.0000 -17.5000
v  17.5000 -5.0000 -14.3301
v  20.0000 0.0000 -10.0000
v  18.6603 0.0000 -5.0000
v  15.0000 0.0000 -1.3397
v  10.0000 0.0000 -0.0000
v  5.0000 0.0000 -1.3397
v  1.3397 0.0000 -5.0000
v  0.0000 0.0000 -10.0000
v  1.3397 0.0000 -15.0000
v  5.0000 0.0000 -18.6603
v  10.0000 0.0000 -20.0000
v  15.0000 0.0000 -18.6603
v  18.6603 0.0000 -15.0000
v  18.6603 5.0000 -10.0000
v  17.5000 5.0000 -5.6699
v  14.3301 5.0000 -2.5000
v  10.0000 5.0000 -1.3397
v  5.6699 5.0000 -2.5000
v  2.5000 5.0000 -5.6699
v  1.3397 5.0000 -10.0000
v  2.5000 5.0000 -14.3301
v  5.6699 5.0000 -17.5000
v  10.0000 5.0000 -18.6603
v  14.3301 5.0000 -17.5000
v  17.5000 5.0000 -14.3301
# 70 vertices

vn 0.0000 1.0000 -0.0000
vn 0.0000 -1.0000 -0.0000
vn 0.0000 0.0000 1.0000
vn -1.0000 0.0000 -0.0000
vn 0.0000 0.0000 -1.0000
vn 1.0000 0.0000 -0.0000
vn 0.4598 0.8474 0.2654
vn 0.2654 0.8474 0.4598
vn 0.0000 0.8474 0.5309
vn -0.2654 0.8474 0.4598
vn -0.4598 0.8474 0.2654
vn -0.5309 0.8474 0.0000
vn -0.4598 -0.8474 0.2654
vn -0.2654 -0.8474 0.4598
vn 0.0000 -0.8474 0.5309
vn 0.2654 -0.8474 0.4598
vn 0.4598 -0.8474 0.2654
vn 0.5309 -0.8474 -0.0000
vn 0.4598 -0.8474 -0.2654
vn 0.2654 -0.8474 -0.4598
vn 0.0000 -0.8474 -0.5309
vn -0.2654 -0.8474 -0.4598
vn -0.4598 -0.8474 -0.2654
vn -0.5309 -0.8474 -0.0000
vn -0.4598 0.8474 -0.2654
vn -0.2654 0.8474 -0.4598
vn 0.0000 0.8474 -0.5309
vn 0.2654 0.8474 -0.4598
vn 0.4598 0.8474 -0.2654
vn 0.5309 0.8474 0.0000
vn 0.8760 -0.4823 -0.0000
vn 0.7586 -0.4823 0.4380
vn 0.4380 -0.4823 0.7586
vn 0.0000 -0.4823 0.8760
vn -0.4380 -0.4823 0.7586
vn -0.7586 -0.4823 0.4380
vn -0.8760 -0.4823 -0.0000
vn -0.7586 -0.4823 -0.4380
vn -0.4380 -0.4823 -0.7586
vn 0.0000 -0.4823 -0.8760
vn 0.4380 -0.4823 -0.7586
vn 0.7586 -0.4823 -0.4380
vn 0.8660 0.0000 0.5000
vn 0.5000 -0.0000 0.8660
vn -0.5000 0.0000 0.8660
vn -0.8660 0.0000 0.5000
vn -0.8660 -0.0000 -0.5000
vn -0.5000 0.0000 -0.8660
vn 0.5000 -0.0000 -0.8660
vn 0.8660 -0.0000 -0.5000
vn 0.8760 0.4823 -0.0000
vn 0.7586 0.4823 0.4380
vn 0.4380 0.4823 0.7586
vn 0.0000 0.4823 0.8760
vn -0.4380 0.4823 0.7586
vn -0.7586 0.4823 0.4380
vn -0.8760 0.4823 -0.0000
vn -0.7586 0.4823 -0.4380
vn -0.4380 0.4823 -0.7586
vn 0.0000 0.4823 -0.8760
vn 0.4380 0.4823 -0.7586
vn 0.7586 0.4823 -0.4380
# 62 vertex normals

vt 1.0000 1.0000 0.0000
vt 0.0000 1.0000 0.0000
vt 0.0000 0.0000 0.0000
vt 1.0000 0.0000 0.0000
vt 0.7165 0.3750 0.9330
vt 0.5000 0.5000 1.0000
vt 0.6250 0.2835 0.9330
vt 0.5000 0.2500 0.9330
vt 0.3750 0.2835 0.9330
vt 0.2835 0.3750 0.9330
vt 0.2500 0.5000 0.9330
vt 0.7165 0.3750 0.0670
vt 0.5000 0.5000 0.0000
vt 0.6250 0.2835 0.0670
vt 0.5000 0.2500 0.0670
vt 0.3750 0.2835 0.0670
vt 0.2835 0.3750 0.0670
vt 0.2500 0.5000 0.0670
vt 0.2835 0.6250 0.0670
vt 0.3750 0.7165 0.0670
vt 0.5000 0.7500 0.0670
vt 0.6250 0.7165 0.0670
vt 0.7165 0.6250 0.0670
vt 0.7500 0.5000 0.0670
vt 0.2835 0.6250 0.9330
vt 0.3750 0.7165 0.9330
vt 0.5000 0.7500 0.9330
vt 0.6250 0.7165 0.9330
vt 0.7165 0.6250 0.9330
vt 0.7500 0.5000 0.9330
vt 0.5000 0.0670 0.7500
vt 0.2835 0.2500 0.8750
vt 0.3750 0.0670 0.7165
vt 0.1250 0.2835 0.2500
vt 0.2835 0.1250 0.2500
vt 0.6250 0.0670 0.2835
vt 0.7165 0.2500 0.1250
vt 0.5000 0.0670 0.2500
vt 0.2835 0.2500 0.1250
vt 0.3750 0.0670 0.2835
vt 0.7165 0.1250 0.2500
vt 0.8750 0.2835 0.2500
vt 0.8750 0.7165 0.2500
vt 0.7165 0.8750 0.2500
vt 0.6250 0.0670 0.7165
vt 0.7165 0.2500 0.8750
vt 0.2835 0.8750 0.2500
vt 0.1250 0.7165 0.2500
vt 0.0670 0.5000 0.7500
vt 0.1250 0.2500 0.7165
vt 0.8750 0.2500 0.2835
vt 0.0670 0.5000 0.2500
vt 0.8750 0.2500 0.7165
vt 0.2835 0.7500 0.8750
vt 0.1250 0.7500 0.7165
vt 0.7165 0.7500 0.1250
vt 0.2835 0.7500 0.1250
vt 0.8750 0.7500 0.2835
vt 0.1250 0.7500 0.2835
vt 0.7165 0.7500 0.8750
vt 0.8750 0.7500 0.7165
vt 0.5000 0.9330 0.7500
vt 0.3750 0.9330 0.7165
vt 0.8750 0.2835 0.7500
vt 0.7165 0.1250 0.7500
vt 0.6250 0.9330 0.2835
vt 0.5000 0.9330 0.2500
vt 0.3750 0.9330 0.2835
vt 0.2835 0.1250 0.7500
vt 0.1250 0.2835 0.7500
vt 0.1250 0.7165 0.7500
vt 0.2835 0.8750 0.7500
vt 0.6250 0.9330 0.7165
vt 0.7165 0.8750 0.7500
vt 0.8750 0.7165 0.7500
# 75 texture coords

o Layer_0
g Layer_0
usemtl wire_088144225
s 1
f 1/1/1 2/2/1 3/3/1 4/4/1 
f 5/3/2 6/4/2 7/1/2 8/2/2 
f 3/2/3 6/3/3 5/4/3 4/1/3 
f 2/2/4 7/3/4 6/4/4 3/1/4 
f 1/2/5 8/3/5 7/4/5 2/1/5 
f 4/2/6 5/3/6 8/4/6 1/1/6 
f 9/5/7 10/6/1 11/7/8 
f 11/7/8 10/6/1 12/8/9 
f 12/8/9 10/6/1 13/9/10 
f 13/9/10 10/6/1 14/10/11 
f 14/10/11 10/6/1 15/11/12 
f 16/12/13 17/13/2 18/14/14 
f 18/14/14 17/13/2 19/15/15 
f 19/15/15 17/13/2 20/16/16 
f 20/16/16 17/13/2 21/17/17 
f 21/17/17 17/13/2 22/18/18 
f 23/19/19 17/13/2 24/20/20 
f 24/20/20 17/13/2 25/21/21 
f 25/21/21 17/13/2 26/22/22 
f 26/22/22 17/13/2 27/23/23 
f 27/23/23 17/13/2 28/24/24 
f 29/25/25 10/6/1 30/26/26 
f 30/26/26 10/6/1 31/27/27 
f 31/27/27 10/6/1 32/28/28 
f 32/28/28 10/6/1 33/29/29 
f 33/29/29 10/6/1 34/30/30 
s 2
f 22/31/18 35/8/31 36/32/32 21/33/17 
s 4
f 21/17/17 36/34/32 37/35/33 20/16/16 
s 2
f 20/36/16 37/37/33 38/15/34 19/38/15 
s 4
f 19/38/15 38/15/34 39/39/35 18/40/14 
s 2
f 18/14/14 39/41/35 40/42/36 16/12/13 
s 4
f 16/36/13 40/37/36 41/15/37 28/38/24 
s 2
f 28/38/24 41/15/37 42/39/38 27/40/23 
s 4
f 27/23/23 42/43/38 43/44/39 26/22/22 
s 2
f 26/45/22 43/46/39 44/8/40 25/31/21 
s 4
f 25/31/21 44/8/40 45/32/41 24/33/20 
s 2
f 24/20/20 45/47/41 46/48/42 23/19/19 
s 4
f 23/45/19 46/46/42 35/8/31 22/31/18 
s 1
f 22/18/18 17/13/2 23/19/19 
f 35/8/31 47/6/6 48/11/43 36/32/32 
s 8
f 36/32/32 48/11/43 49/49/44 37/50/33 
s 1
f 37/37/33 49/24/44 50/13/3 38/15/34 
s 8
f 38/15/34 50/13/3 51/18/45 39/39/35 
s 1
f 39/51/35 51/18/45 52/24/46 40/37/36 
s 8
f 40/37/36 52/24/46 53/13/4 41/15/37 
s 1
f 41/15/37 53/13/4 54/18/47 42/39/38 
s 8
f 42/39/38 54/18/47 55/52/48 43/46/39 
s 1
f 43/46/39 55/30/48 56/6/5 44/8/40 
s 8
f 44/8/40 56/6/5 57/11/49 45/32/41 
s 1
f 45/53/41 57/11/49 58/30/50 46/46/42 
s 8
f 46/46/42 58/30/50 47/6/6 35/8/31 
s 2
f 47/6/6 59/27/51 60/54/52 48/11/43 
s 4
f 48/11/43 60/54/52 61/55/53 49/49/44 
s 2
f 49/24/44 61/56/53 62/21/54 50/13/3 
s 4
f 50/13/3 62/21/54 63/57/55 51/18/45 
s 2
f 51/18/45 63/58/55 64/56/56 52/24/46 
s 4
f 52/24/46 64/56/56 65/21/57 53/13/4 
s 2
f 53/13/4 65/21/57 66/57/58 54/18/47 
s 4
f 54/18/47 66/57/58 67/59/59 55/52/48 
s 2
f 55/30/48 67/60/59 68/27/60 56/6/5 
s 4
f 56/6/5 68/27/60 69/54/61 57/11/49 
s 2
f 57/11/49 69/61/61 70/60/62 58/30/50 
s 4
f 58/30/50 70/60/62 59/27/51 47/6/6 
s 8
f 59/27/51 34/62/30 9/63/7 60/54/52 
s 16
f 60/64/52 9/5/7 11/7/8 61/65/53 
s 8
f 61/56/53 11/66/8 12/67/9 62/21/54 
s 16
f 62/21/54 12/67/9 13/68/10 63/57/55 
s 8
f 63/69/55 13/9/10 14/10/11 64/70/56 
s 16
f 64/56/56 14/66/11 15/67/12 65/21/57 
s 8
f 65/21/57 15/67/12 29/68/25 66/57/58 
s 16
f 66/71/58 29/25/25 30/26/26 67/72/59 
s 8
f 67/60/59 30/73/26 31/62/27 68/27/60 
s 16
f 68/27/60 31/62/27 32/63/28 69/54/61 
s 8
f 69/74/61 32/28/28 33/29/29 70/75/62 
s 16
f 70/60/62 33/73/29 34/62/30 59/27/51 
s 1
f 34/30/30 10/6/1 9/5/7 
f 15/11/12 10/6/1 29/25/25 
f 28/24/24 17/13/2 16/12/13 
# 54 polygons - 24 triangles

