{
    "asset" : {
        "generator" : "Khronos glTF Blender I/O v1.6.16",
        "version" : "2.0"
    },
    "scene" : 0,
    "scenes" : [
        {
            "name" : "Scene",
            "nodes" : [
                0,
                1,
                8
            ]
        }
    ],
    "nodes" : [
        {
            "name" : "Light",
            "rotation" : [
                0.16907575726509094,
                0.7558803558349609,
                -0.27217137813568115,
                0.570947527885437
            ],
            "translation" : [
                4.076245307922363,
                5.903861999511719,
                -1.0054539442062378
            ]
        },
        {
            "name" : "Camera",
            "rotation" : [
                0.483536034822464,
                0.33687159419059753,
                -0.20870360732078552,
                0.7804827094078064
            ],
            "translation" : [
                7.358891487121582,
                4.958309173583984,
                6.925790786743164
            ]
        },
        {
            "mesh" : 0,
            "name" : "Layer:0.002",
            "translation" : [
                308.9103088378906,
                -228.36415100097656,
                12.702302932739258
            ]
        },
        {
            "children" : [
                2
            ],
            "name" : "Block:\u5706\u67f11",
            "translation" : [
                -177.05575561523438,
                33.240013122558594,
                -330.12921142578125
            ]
        },
        {
            "mesh" : 1,
            "name" : "Layer:0",
            "translation" : [
                -102.1222915649414,
                -176.20779418945312,
                -279.7536926269531
            ]
        },
        {
            "children" : [
                4
            ],
            "name" : "Block:\u87ba\u4e1d1",
            "translation" : [
                233.69000244140625,
                57.49809265136719,
                -37.92179870605469
            ]
        },
        {
            "mesh" : 2,
            "name" : "Layer:0.001",
            "translation" : [
                -35.42593765258789,
                -301.478759765625,
                -414.1169128417969
            ]
        },
        {
            "children" : [
                6
            ],
            "name" : "Block:\u87ba\u4e1d2",
            "translation" : [
                168.8833770751953,
                29.999984741210938,
                95.81417846679688
            ]
        },
        {
            "children" : [
                3,
                5,
                7
            ],
            "name" : "Block:\u7ec4\u54081",
            "rotation" : [
                0.7071068286895752,
                0,
                0,
                0.7071067094802856
            ],
            "scale" : [
                0.02539999969303608,
                0.02539999969303608,
                0.02539999969303608
            ],
            "translation" : [
                -7.837184906005859,
                -3.8654942512512207,
                6.093987941741943
            ]
        }
    ],
    "animations" : [
        {
            "channels" : [
                {
                    "sampler" : 0,
                    "target" : {
                        "node" : 4,
                        "path" : "translation"
                    }
                }
            ],
            "name" : "Layer:0Action.001",
            "samplers" : [
                {
                    "input" : 12,
                    "interpolation" : "LINEAR",
                    "output" : 13
                }
            ]
        },
        {
            "channels" : [
                {
                    "sampler" : 0,
                    "target" : {
                        "node" : 6,
                        "path" : "translation"
                    }
                }
            ],
            "name" : "Layer:0.001Action",
            "samplers" : [
                {
                    "input" : 12,
                    "interpolation" : "LINEAR",
                    "output" : 14
                }
            ]
        }
    ],
    "materials" : [
        {
            "doubleSided" : true,
            "name" : "\u6750\u8d28.001",
            "pbrMetallicRoughness" : {}
        },
        {
            "doubleSided" : true,
            "name" : "\u6750\u8d28",
            "pbrMetallicRoughness" : {
                "baseColorFactor" : [
                    0.800000011920929,
                    0.800000011920929,
                    0.800000011920929,
                    1
                ],
                "metallicFactor" : 0,
                "roughnessFactor" : 0.5
            }
        },
        {
            "doubleSided" : true,
            "name" : "\u6750\u8d28.002",
            "pbrMetallicRoughness" : {}
        }
    ],
    "meshes" : [
        {
            "name" : "\u7f51\u683c.002",
            "primitives" : [
                {
                    "attributes" : {
                        "POSITION" : 0,
                        "NORMAL" : 1,
                        "TEXCOORD_0" : 2
                    },
                    "indices" : 3,
                    "material" : 0
                }
            ]
        },
        {
            "name" : "\u7f51\u683c",
            "primitives" : [
                {
                    "attributes" : {
                        "POSITION" : 4,
                        "NORMAL" : 5,
                        "TEXCOORD_0" : 6
                    },
                    "indices" : 7,
                    "material" : 1
                }
            ]
        },
        {
            "name" : "\u7f51\u683c.001",
            "primitives" : [
                {
                    "attributes" : {
                        "POSITION" : 8,
                        "NORMAL" : 9,
                        "TEXCOORD_0" : 10
                    },
                    "indices" : 11,
                    "material" : 2
                }
            ]
        }
    ],
    "accessors" : [
        {
            "bufferView" : 0,
            "componentType" : 5126,
            "count" : 108,
            "max" : [
                60,
                90,
                59.088623046875
            ],
            "min" : [
                -60,
                -90,
                -59.088623046875
            ],
            "type" : "VEC3"
        },
        {
            "bufferView" : 1,
            "componentType" : 5126,
            "count" : 108,
            "type" : "VEC3"
        },
        {
            "bufferView" : 2,
            "componentType" : 5126,
            "count" : 108,
            "type" : "VEC2"
        },
        {
            "bufferView" : 3,
            "componentType" : 5123,
            "count" : 204,
            "type" : "SCALAR"
        },
        {
            "bufferView" : 4,
            "componentType" : 5126,
            "count" : 252,
            "max" : [
                113.77099609375,
                15,
                100
            ],
            "min" : [
                -113.7711181640625,
                -15,
                -100
            ],
            "type" : "VEC3"
        },
        {
            "bufferView" : 5,
            "componentType" : 5126,
            "count" : 252,
            "type" : "VEC3"
        },
        {
            "bufferView" : 6,
            "componentType" : 5126,
            "count" : 252,
            "type" : "VEC2"
        },
        {
            "bufferView" : 7,
            "componentType" : 5123,
            "count" : 504,
            "type" : "SCALAR"
        },
        {
            "bufferView" : 8,
            "componentType" : 5126,
            "count" : 252,
            "max" : [
                113.771240234375,
                15,
                100
            ],
            "min" : [
                -113.7711181640625,
                -15,
                -100
            ],
            "type" : "VEC3"
        },
        {
            "bufferView" : 9,
            "componentType" : 5126,
            "count" : 252,
            "type" : "VEC3"
        },
        {
            "bufferView" : 10,
            "componentType" : 5126,
            "count" : 252,
            "type" : "VEC2"
        },
        {
            "bufferView" : 11,
            "componentType" : 5123,
            "count" : 504,
            "type" : "SCALAR"
        },
        {
            "bufferView" : 12,
            "componentType" : 5126,
            "count" : 251,
            "max" : [
                8.333333333333334
            ],
            "min" : [
                0
            ],
            "type" : "SCALAR"
        },
        {
            "bufferView" : 13,
            "componentType" : 5126,
            "count" : 251,
            "type" : "VEC3"
        },
        {
            "bufferView" : 14,
            "componentType" : 5126,
            "count" : 251,
            "type" : "VEC3"
        }
    ],
    "bufferViews" : [
        {
            "buffer" : 0,
            "byteLength" : 1296,
            "byteOffset" : 0
        },
        {
            "buffer" : 0,
            "byteLength" : 1296,
            "byteOffset" : 1296
        },
        {
            "buffer" : 0,
            "byteLength" : 864,
            "byteOffset" : 2592
        },
        {
            "buffer" : 0,
            "byteLength" : 408,
            "byteOffset" : 3456
        },
        {
            "buffer" : 0,
            "byteLength" : 3024,
            "byteOffset" : 3864
        },
        {
            "buffer" : 0,
            "byteLength" : 3024,
            "byteOffset" : 6888
        },
        {
            "buffer" : 0,
            "byteLength" : 2016,
            "byteOffset" : 9912
        },
        {
            "buffer" : 0,
            "byteLength" : 1008,
            "byteOffset" : 11928
        },
        {
            "buffer" : 0,
            "byteLength" : 3024,
            "byteOffset" : 12936
        },
        {
            "buffer" : 0,
            "byteLength" : 3024,
            "byteOffset" : 15960
        },
        {
            "buffer" : 0,
            "byteLength" : 2016,
            "byteOffset" : 18984
        },
        {
            "buffer" : 0,
            "byteLength" : 1008,
            "byteOffset" : 21000
        },
        {
            "buffer" : 0,
            "byteLength" : 1004,
            "byteOffset" : 22008
        },
        {
            "buffer" : 0,
            "byteLength" : 3012,
            "byteOffset" : 23012
        },
        {
            "buffer" : 0,
            "byteLength" : 3012,
            "byteOffset" : 26024
        }
    ],
    "buffers" : [
        {
            "byteLength" : 29036,
            "uri" : "data:application/octet-stream;base64,"
        }
    ]
}
